<?xml version="1.0" encoding="UTF-8"?><svg id="Layer_1" xmlns="http://www.w3.org/2000/svg" viewBox="0 0 1200 700"><defs><style>.cls-1{fill:#0069e9;stroke-width:0px;}.cls-2{fill:none;stroke:#00aeef;stroke-miterlimit:10;stroke-width:6px;}</style></defs><rect class="cls-1" width="1200" height="700"/><g id="donut"><circle class="cls-2" cx="182.2096" cy="222.8694" r="110.58824"/><path class="cls-2" d="m230.94479,170.67884v.00009c1.72509,11.17126,8.83672,20.77835,19.01731,25.69044l.00008.00004c25.63729,12.36987,25.96167,48.76773.54893,61.59256l-.00008.00004c-10.09142,5.09275-17.0307,14.82507-18.55639,26.0253v.00009c-3.8421,28.20501-38.35828,39.76108-58.40839,19.55521l-.00006-.00006c-7.96192-8.02377-19.36225-11.61596-30.48577-9.60592l-.00009.00002c-28.01183,5.06179-49.66839-24.19403-36.64729-49.50678l.00004-.00008c5.17069-10.05171,5.06417-22.00413-.28485-31.96208l-.00004-.00008c-13.47018-25.07665,7.66152-54.71381,35.75911-50.15208h.00009c11.15758,1.81148,22.49208-1.98333,30.30972-10.14772l.00006-.00006c19.6868-20.56001,54.40347-9.62096,58.74764,18.51109Z"/><circle class="cls-2" cx="182.2096" cy="222.8694" r="29.3409"/></g><g id="donut-2"><circle class="cls-2" cx="383.79167" cy="497.70473" r="149.86516"/><path class="cls-2" d="m414.99571,406.10554l.00006.0001c8.34421,12.84621,22.47534,20.76393,37.7882,21.17288h.00012c38.56165,1.02984,59.20344,45.83019,34.93009,75.81128l-.00007.00009c-9.63897,11.90552-12.80241,27.79173-8.45941,42.48149l.00003.00011c10.93678,36.99254-25.29223,70.46812-61.30682,56.64746l-.00011-.00004c-14.30142-5.48819-30.38767-3.5877-43.0164,5.08213l-.0001.00007c-31.80235,21.83282-74.8349-2.27849-72.81979-40.80122v-.00012c.80021-15.29741-5.97819-30.00905-18.12618-39.34057l-.00009-.00007c-30.59171-23.49912-20.95828-71.87631,16.30172-81.86401l.00011-.00003c14.79597-3.96612,26.69294-14.95891,31.8138-29.39593l.00004-.00011c12.89563-36.35607,61.88197-42.14351,82.8948-9.79351Z"/><circle class="cls-2" cx="383.79167" cy="497.70473" r="39.76172"/></g><g id="donut-3"><circle class="cls-2" cx="586.58975" cy="152.92832" r="82.49953"/><path class="cls-2" d="m594.98148,100.3233l.00004.00005c5.72447,6.19187,14.12922,9.17044,22.47523,7.96503h.00006c21.01736-3.03555,36.39219,19.3466,26.01734,37.87512l-.00003.00006c-4.11986,7.35769-4.35544,16.27151-.62996,23.83654l.00003.00006c9.38169,19.05066-7.15391,40.58946-27.98159,36.44802h-.00006c-8.27069-1.64458-16.82103.88589-22.86457,6.76675l-.00005.00005c-15.21915,14.8095-40.81355,5.73906-43.31091-15.34901v-.00006c-.99171-8.37409-6.04054-15.72399-13.50112-19.65445l-.00006-.00003c-18.78765-9.89789-18.07025-37.04253,1.21397-45.93423l.00006-.00003c7.65778-3.5309,13.08778-10.60386,14.52042-18.91388v-.00006c3.60776-20.92673,29.64553-28.6326,44.0612-13.0399Z"/><circle class="cls-2" cx="586.58975" cy="152.92832" r="21.8885"/></g><g id="donut-4"><circle class="cls-2" cx="984.56875" cy="246.91315" r="131.24496"/><path class="cls-2" d="m1052.01993,195.60929v.0001c-.21672,13.41333,6.1807,26.07442,17.10741,33.85717l.00008.00006c27.51622,19.59893,20.61457,62.24236-11.679,72.16133l-.0001.00003c-12.8238,3.93883-22.8883,13.93563-26.9136,26.73255l-.00003.0001c-10.13671,32.22588-52.82575,38.83956-72.23851,11.19169l-.00006-.00009c-7.70882-10.97899-20.32645-17.46172-33.74093-17.33554h-.0001c-33.78105.31777-53.26267-38.23818-32.96685-65.24448l.00006-.00008c8.05949-10.72422,10.32587-24.72757,6.06056-37.44651l-.00003-.0001c-10.74113-32.02949,19.9076-62.47206,51.86387-51.515l.0001.00003c12.68986,4.35106,26.70818,2.17925,37.48656-5.80768l.00008-.00006c27.14267-20.11308,65.56625-.37167,65.02049,33.40647Z"/><circle class="cls-2" cx="984.56875" cy="246.91315" r="34.82147"/></g><g id="donut-5"><circle class="cls-2" cx="775.29264" cy="537.46645" r="96.16322"/><path class="cls-2" d="m822.0709,496.6337v.00008c.50332,9.81634,5.80471,18.75645,14.17651,23.90686l.00006.00004c21.0823,12.97004,18.14075,44.48448-4.97771,53.32882l-.00007.00003c-9.18036,3.51209-16.04469,11.31666-18.356,20.87028l-.00002.00007c-5.82045,24.05842-36.70145,30.99933-52.25692,11.74543l-.00005-.00006c-6.17709-7.64574-15.72087-11.76237-25.52113-11.00832h-.00008c-24.67954,1.89889-40.82349-25.32583-27.31884-46.06974l.00004-.00006c5.36271-8.23742,6.32866-18.58621,2.58307-27.6738l-.00003-.00007c-9.43234-22.88485,11.47115-46.65156,35.37294-40.21809l.00007.00002c9.49142,2.55473,19.6322.27546,27.11756-6.09503l.00006-.00005c18.85003-16.0425,47.91305-3.50642,49.18052,21.21359Z"/><circle class="cls-2" cx="775.29264" cy="537.46645" r="25.5137"/></g></svg>